<?xml version="1.0" encoding="UTF-8" standalone="no"?>
<svg width="26px" height="31px" viewBox="0 0 26 31" version="1.1" xmlns="http://www.w3.org/2000/svg" xmlns:xlink="http://www.w3.org/1999/xlink">
    <!-- Generator: Sketch 3.6.1 (26313) - http://www.bohemiancoding.com/sketch -->
    <title>Group 3</title>
    <desc>Created with Sketch.</desc>
    <defs>
        <path id="path-1" d="M16.4946963,0.0259191176 L0.0361372043,0.0259191176 L0.0361372043,8.21589706 L16.4946963,8.21589706 L16.4946963,0.0259191176 L16.4946963,0.0259191176 Z"></path>
        <path id="path-3" d="M3.03110285e-21,0.0347867647 L3.03110285e-21,10.9030037 L3.54648946,10.9030037 L3.54648946,0.0347867647 L0,0.0347867647 L3.03110285e-21,0.0347867647 Z"></path>
        <path id="path-5" d="M3.59963011,10.9030037 L3.59963011,0.0347867647 L0.053123871,0.0347867647 L0.053123871,10.9030037 L3.59963011,10.9030037 L3.59963011,10.9030037 Z"></path>
    </defs>
    <g id="Home" stroke="none" stroke-width="1" fill="none" fill-rule="evenodd">
        <g id="home-&gt;992" transform="translate(-913.000000, -481.000000)">
            <g id="Group-3" transform="translate(913.000000, 481.000000)">
                <g id="Page-1">
                    <ellipse id="Oval-391" fill-opacity="0.15" fill="#000000" cx="13" cy="29.5" rx="10" ry="1.5"></ellipse>
                    <path d="M19.6861488,24.1208051 L6.12639398,24.1208051 C5.3312972,24.1208051 4.68677677,23.485125 4.68677677,22.7009338 L4.68677677,9.47005147 L21.125766,9.47005147 L21.125766,22.7009338 C21.125766,23.485125 20.4812456,24.1208051 19.6861488,24.1208051" id="Fill-1" fill="#A8C62A"></path>
                    <g id="Group-5" transform="translate(4.640860, 0.029228)">
                        <mask id="mask-2" fill="white">
                            <use xlink:href="#path-1"></use>
                        </mask>
                        <g id="Clip-4"></g>
                        <path d="M11.9250705,5.95977574 C11.4353759,5.95977574 11.0384426,5.56828676 11.0384426,5.08530882 C11.0384426,4.60233088 11.4353759,4.21084191 11.9250705,4.21084191 C12.4147652,4.21084191 12.8116985,4.60233088 12.8116985,5.08530882 C12.8116985,5.56828676 12.4147652,5.95977574 11.9250705,5.95977574 M4.79525548,5.95977574 C4.30556086,5.95977574 3.90868344,5.56828676 3.90868344,5.08530882 C3.90868344,4.60233088 4.30556086,4.21084191 4.79525548,4.21084191 C5.28495011,4.21084191 5.68188344,4.60233088 5.68188344,5.08530882 C5.68188344,5.56828676 5.28495011,5.95977574 4.79525548,5.95977574 M12.1482232,2.59150368 L13.7398705,0.424334559 C13.8220082,0.312606618 13.7967351,0.155492647 13.6834533,0.0744816176 C13.569892,-0.00675 13.4117114,0.0179007353 13.3296856,0.129628676 L11.6838576,2.36826838 C10.6391609,1.90966544 9.48302753,1.65312132 8.26544473,1.65312132 C7.11138022,1.65312132 6.01199957,1.88275368 5.01085978,2.29729412 L3.41708774,0.1291875 C3.33483828,0.0174595588 3.17654581,-0.00757720588 3.06337591,0.0735441176 C2.95003828,0.154555147 2.92482108,0.310731618 3.00695871,0.422459559 L4.54123828,2.51341544 C2.27174581,3.62005147 0.580403871,5.73427941 0.0361372043,8.21589706 L16.4946963,8.21589706 C15.9630662,5.78942647 14.3379265,3.71666912 12.1482232,2.59150368" id="Fill-3" fill="#A8C62A" mask="url(#mask-2)"></path>
                    </g>
                    <path d="M9.64727484,29.9740809 L9.54165333,29.9740809 C8.53900387,29.9740809 7.72623828,29.1724632 7.72623828,28.1835662 L7.72623828,23.9153493 L11.4626899,23.9153493 L11.4626899,28.1835662 C11.4626899,29.1724632 10.6499243,29.9740809 9.64727484,29.9740809" id="Fill-6" fill="#A8C62A"></path>
                    <path d="M16.3602288,29.9740809 L16.2546073,29.9740809 C15.2519578,29.9740809 14.4391923,29.1724632 14.4391923,28.1835662 L14.4391923,23.9153493 L18.1756439,23.9153493 L18.1756439,28.1835662 C18.1756439,29.1724632 17.3628783,29.9740809 16.3602288,29.9740809" id="Fill-8" fill="#A8C62A"></path>
                    <g id="Group-12" transform="translate(0.000000, 9.514522)">
                        <mask id="mask-4" fill="white">
                            <use xlink:href="#path-3"></use>
                        </mask>
                        <g id="Clip-11"></g>
                        <path d="M1.77323355,10.9030037 L1.77323355,10.9030037 C0.793900215,10.9030037 -2.23655916e-05,10.1199706 -2.23655916e-05,9.15406985 L-2.23655916e-05,1.78366544 C-2.23655916e-05,0.817764706 0.793900215,0.0347867647 1.77323355,0.0347867647 L1.77323355,0.0347867647 C2.75256688,0.0347867647 3.54648946,0.817764706 3.54648946,1.78366544 L3.54648946,9.15406985 C3.54648946,10.1199706 2.75256688,10.9030037 1.77323355,10.9030037" id="Fill-10" fill="#A8C62A" mask="url(#mask-4)"></path>
                    </g>
                    <g id="Group-15" transform="translate(22.365591, 2.514522)">
                        <mask id="mask-6" fill="white">
                            <use xlink:href="#path-5"></use>
                        </mask>
                        <g id="Clip-14"></g>
                        <path d="M1.82637978,10.9030037 L1.82637978,10.9030037 C0.847046452,10.9030037 0.053123871,10.1199706 0.053123871,9.15406985 L0.053123871,1.78366544 C0.053123871,0.817764706 0.847046452,0.0347867647 1.82637978,0.0347867647 L1.82637978,0.0347867647 C2.80571312,0.0347867647 3.5996357,0.817764706 3.5996357,1.78366544 L3.5996357,9.15406985 C3.5996357,10.1199706 2.80571312,10.9030037 1.82637978,10.9030037" id="Fill-13" fill="#A8C62A" mask="url(#mask-6)"></path>
                    </g>
                </g>
            </g>
        </g>
    </g>
</svg>