<?xml version="1.0" encoding="UTF-8" standalone="no"?>
<svg width="55px" height="51px" viewBox="0 0 55 51" version="1.1" xmlns="http://www.w3.org/2000/svg" xmlns:xlink="http://www.w3.org/1999/xlink" xmlns:sketch="http://www.bohemiancoding.com/sketch/ns">
    <!-- Generator: Sketch 3.5.2 (25235) - http://www.bohemiancoding.com/sketch -->
    <title>Group 13</title>
    <desc>Created with Sketch.</desc>
    <defs></defs>
    <g id="Home" stroke="none" stroke-width="1" fill="none" fill-rule="evenodd" sketch:type="MSPage">
        <g id="home-&gt;992" sketch:type="MSArtboardGroup" transform="translate(-842.000000, -421.000000)">
            <g id="Group-13" sketch:type="MSLayerGroup" transform="translate(842.000000, 421.000000)">
                <g id="speech_bubble-hello" sketch:type="MSShapeGroup">
                    <path d="M51.4523133,37.2946755 C57.9271253,25.0261724 53.3034008,9.79333182 41.1269307,3.27052456 C28.9502845,-3.25237702 13.8304898,1.40406746 7.35567771,13.6725706 C4.48020581,19.1210277 3.79360911,25.1543688 4.98547571,30.7498098 C4.38274564,31.6677698 2.98730886,33.3032093 0.413192293,33.9332471 C0.413265101,33.9331091 3.83603769,36.960416 7.43740316,37.4536007 C9.69480518,41.667743 13.1692776,45.2800344 17.6806145,47.6967103 C29.8570846,54.2195176 44.977782,49.5626465 51.4523133,37.2946755 Z" id="Fill-1" opacity="0.9" fill="#FFFFFF"></path>
                    <path d="M20.7773284,12.5305337 L23.1722172,12.5305337 L23.1722172,23.4810045 L20.7773284,23.4810045 L20.7773284,12.5305337 Z M30.1419577,17.8201679 L28.1155133,17.8201679 L28.1155133,20.3257841 C28.1155133,20.5320087 28.1257478,20.7201858 28.1462171,20.8903211 C28.1666863,21.0604564 28.2127414,21.2073892 28.2843837,21.3311239 C28.356026,21.4548587 28.4660465,21.5502361 28.6144485,21.6172591 C28.7628505,21.6842821 28.9598639,21.7177931 29.2054948,21.7177931 C29.3283102,21.7177931 29.4895031,21.7049042 29.6890781,21.6791262 C29.8886532,21.6533481 30.0396116,21.5940594 30.1419577,21.5012584 L30.1419577,23.4346042 C29.8860923,23.5274053 29.6199962,23.5892717 29.3436615,23.6202054 C29.0673268,23.6511391 28.7961134,23.6666057 28.5300133,23.6666057 C28.1410978,23.6666057 27.7828915,23.6253614 27.4553837,23.5428716 C27.1278759,23.4603817 26.8413109,23.3289155 26.5956801,23.148469 C26.3500492,22.9680225 26.158153,22.7334455 26.0199856,22.4447311 C25.8818183,22.1560167 25.8127356,21.8054402 25.8127356,21.392991 L25.8127356,17.8201679 L24.3389579,17.8201679 L24.3389579,15.9641559 L25.8127356,15.9641559 L25.8127356,13.7369415 L28.1155133,13.7369415 L28.1155133,15.9641559 L30.1419577,15.9641559 L30.1419577,17.8201679 Z M33.0588095,16.8921619 L31.0937725,16.8921619 L32.2298095,12.5305337 L34.4404761,12.5305337 L33.0588095,16.8921619 Z M38.9385686,18.1759035 C38.6008262,17.7531431 38.155627,17.5417661 37.6029575,17.5417661 C37.4084998,17.5417661 37.2191622,17.5881659 37.034939,17.680967 C36.8507159,17.7737681 36.7586057,17.9335897 36.7586057,18.1604368 C36.7586057,18.3460389 36.8532745,18.4826606 37.042615,18.5703061 C37.2319554,18.6579515 37.4724653,18.7352846 37.764152,18.8023076 C38.0558386,18.8693306 38.3679898,18.9415081 38.7006149,19.0188423 C39.03324,19.0961765 39.3453912,19.2173317 39.6370779,19.3823113 C39.9287645,19.547291 40.1692744,19.7715569 40.3586149,20.0551157 C40.5479553,20.3386745 40.6426241,20.7176065 40.6426241,21.191923 C40.6426241,21.6765508 40.5377209,22.0761049 40.3279112,22.3905974 C40.1181015,22.7050899 39.8494468,22.9577113 39.521939,23.148469 C39.1944312,23.3392267 38.8259904,23.4732707 38.4166057,23.5506049 C38.0072209,23.6279392 37.6029595,23.6666057 37.2038094,23.6666057 C36.6818438,23.6666057 36.1547689,23.5918504 35.6225687,23.4423376 C35.0903685,23.2928247 34.6400521,23.0273146 34.2716058,22.6457991 L35.6686243,21.0836557 C35.8835513,21.3517476 36.1215026,21.5553913 36.3824853,21.6945929 C36.6434681,21.8337945 36.9479435,21.9033943 37.2959205,21.9033943 C37.5620206,21.9033943 37.8025305,21.8647278 38.0174575,21.7873935 C38.2323845,21.7100593 38.3398464,21.568282 38.3398464,21.3620575 C38.3398464,21.1661441 38.2451776,21.0192113 38.0558372,20.9212546 C37.8664967,20.8232979 37.6259868,20.7408093 37.3343001,20.6737863 C37.0426135,20.6067633 36.7304623,20.5345858 36.3978372,20.4572516 C36.0652121,20.3799174 35.7530609,20.2639178 35.4613743,20.1092494 C35.1696876,19.9545809 34.9291777,19.7354706 34.7398372,19.4519118 C34.5504968,19.168353 34.455828,18.789421 34.455828,18.3151044 C34.455828,17.8717216 34.5453796,17.4902118 34.7244854,17.1705637 C34.9035912,16.8509156 35.1389839,16.5879832 35.4306706,16.3817586 C35.7223572,16.175534 36.0575359,16.0234457 36.4362168,15.925489 C36.8148977,15.8275323 37.1986902,15.7785547 37.5876057,15.7785547 C38.0788674,15.7785547 38.575239,15.8507322 39.0767353,15.9950894 C39.5782316,16.1394466 40.0029619,16.3972235 40.3509389,16.7684278 L38.9385686,18.1759035 Z M13.9227267,28.7378855 L12.4028934,28.7378855 L12.4028934,26.8818735 L13.9227267,26.8818735 L13.9227267,25.5517316 C13.9227267,25.1392824 13.9585473,24.7500394 14.0301897,24.3839907 C14.101832,24.0179421 14.2399973,23.695721 14.4446896,23.4173178 C14.649382,23.1389146 14.9436229,22.9198043 15.3274211,22.7599802 C15.7112193,22.6001562 16.2152667,22.5202453 16.8395785,22.5202453 C17.0749747,22.5202453 17.3052502,22.5305564 17.5304118,22.5511789 C17.7555734,22.5718013 17.9756144,22.6078901 18.1905414,22.6594462 L18.0830784,24.6237256 C17.9500284,24.5721695 17.8272148,24.5335029 17.714634,24.5077249 C17.6020532,24.4819468 17.4741224,24.4690579 17.3308377,24.4690579 C16.9623914,24.4690579 16.6860609,24.5489688 16.5018377,24.7087928 C16.3176146,24.8686169 16.2255044,25.1959935 16.2255044,25.6909325 L16.2255044,26.8818735 L17.9295599,26.8818735 L17.9295599,28.7378855 L16.2255044,28.7378855 L16.2255044,34.3987221 L13.9227267,34.3987221 L13.9227267,28.7378855 Z M18.8046154,26.8818735 L21.1073932,26.8818735 L21.1073932,28.0882813 L21.1380969,28.0882813 C21.3837277,27.624276 21.67541,27.2762772 22.0131524,27.0442746 C22.3508948,26.8122719 22.7756251,26.6962723 23.2873561,26.6962723 C23.4204061,26.6962723 23.5534542,26.7014279 23.6865042,26.7117391 C23.8195543,26.7220503 23.9423678,26.7426725 24.0549486,26.7736062 L24.0549486,28.8925532 C23.8911947,28.8409971 23.7300019,28.8023305 23.5713653,28.7765525 C23.4127287,28.7507744 23.2464187,28.7378855 23.0724301,28.7378855 C22.6323415,28.7378855 22.2843697,28.799752 22.0285043,28.9234867 C21.7726388,29.0472215 21.5756253,29.219932 21.437458,29.4416234 C21.2992906,29.6633148 21.209739,29.928825 21.1688006,30.2381619 C21.1278621,30.5474988 21.1073932,30.8877642 21.1073932,31.2589685 L21.1073932,34.3987221 L18.8046154,34.3987221 L18.8046154,26.8818735 Z M31.8383373,33.0995137 C31.469891,33.5738303 31.0042229,33.9398734 30.4413188,34.1976542 C29.8784148,34.4554349 29.2950503,34.5843233 28.6912078,34.5843233 C28.1180691,34.5843233 27.5782011,34.4915237 27.0715875,34.3059215 C26.5649738,34.1203194 26.1248918,33.8548092 25.7513282,33.5093831 C25.3777646,33.1639569 25.0835238,32.7489361 24.8685968,32.2643083 C24.6536698,31.7796806 24.5462079,31.2383491 24.5462079,30.6402978 C24.5462079,30.0422465 24.6536698,29.5009151 24.8685968,29.0162873 C25.0835238,28.5316596 25.3777646,28.1166388 25.7513282,27.7712126 C26.1248918,27.4257864 26.5649738,27.1602763 27.0715875,26.9746741 C27.5782011,26.789072 28.1180691,26.6962723 28.6912078,26.6962723 C29.223408,26.6962723 29.7069864,26.789072 30.1419577,26.9746741 C30.576929,27.1602763 30.9453698,27.4257864 31.247291,27.7712126 C31.5492123,28.1166388 31.7820464,28.5316596 31.9458003,29.0162873 C32.1095542,29.5009151 32.1914299,30.0422465 32.1914299,30.6402978 L32.1914299,31.3672359 L26.8489856,31.3672359 C26.9410972,31.8106187 27.1406692,32.163773 27.4477078,32.4267094 C27.7547464,32.6896457 28.1334216,32.8211119 28.5837448,32.8211119 C28.9624257,32.8211119 29.2822528,32.7360456 29.5432355,32.5659103 C29.8042183,32.395775 30.0319352,32.1766647 30.2263929,31.9085727 L31.8383373,33.0995137 Z M29.8886522,29.7896257 C29.8988868,29.397799 29.770956,29.062689 29.5048559,28.7842858 C29.2387558,28.5058826 28.8959012,28.3666831 28.4762819,28.3666831 C28.2204164,28.3666831 27.9952582,28.4079274 27.8008004,28.4904173 C27.6063426,28.5729071 27.4400326,28.6785956 27.3018652,28.807486 C27.1636979,28.9363764 27.056236,29.0858869 26.9794763,29.2560222 C26.9027167,29.4261575 26.8592202,29.6040235 26.8489856,29.7896257 L29.8886522,29.7896257 Z M40.6503001,33.0995137 C40.2818538,33.5738303 39.8161856,33.9398734 39.2532816,34.1976542 C38.6903775,34.4554349 38.107013,34.5843233 37.5031705,34.5843233 C36.9300319,34.5843233 36.3901638,34.4915237 35.8835502,34.3059215 C35.3769365,34.1203194 34.9368545,33.8548092 34.563291,33.5093831 C34.1897274,33.1639569 33.8954865,32.7489361 33.6805595,32.2643083 C33.4656325,31.7796806 33.3581706,31.2383491 33.3581706,30.6402978 C33.3581706,30.0422465 33.4656325,29.5009151 33.6805595,29.0162873 C33.8954865,28.5316596 34.1897274,28.1166388 34.563291,27.7712126 C34.9368545,27.4257864 35.3769365,27.1602763 35.8835502,26.9746741 C36.3901638,26.789072 36.9300319,26.6962723 37.5031705,26.6962723 C38.0353707,26.6962723 38.5189492,26.789072 38.9539205,26.9746741 C39.3888918,27.1602763 39.7573325,27.4257864 40.0592538,27.7712126 C40.361175,28.1166388 40.5940091,28.5316596 40.757763,29.0162873 C40.9215169,29.5009151 41.0033926,30.0422465 41.0033926,30.6402978 L41.0033926,31.3672359 L35.6609483,31.3672359 C35.7530599,31.8106187 35.952632,32.163773 36.2596705,32.4267094 C36.5667091,32.6896457 36.9453843,32.8211119 37.3957075,32.8211119 C37.7743884,32.8211119 38.0942155,32.7360456 38.3551983,32.5659103 C38.616181,32.395775 38.8438979,32.1766647 39.0383556,31.9085727 L40.6503001,33.0995137 Z M38.7006149,29.7896257 C38.7108495,29.397799 38.5829187,29.062689 38.3168186,28.7842858 C38.0507185,28.5058826 37.707864,28.3666831 37.2882446,28.3666831 C37.0323791,28.3666831 36.8072209,28.4079274 36.6127631,28.4904173 C36.4183054,28.5729071 36.2519953,28.6785956 36.1138279,28.807486 C35.9756606,28.9363764 35.8681987,29.0858869 35.7914391,29.2560222 C35.7146794,29.4261575 35.671183,29.6040235 35.6609483,29.7896257 L38.7006149,29.7896257 Z M46.1462629,30.7794987 L43.8434851,30.7794987 L43.8434851,23.4482513 L46.1462629,23.4482513 L46.1462629,30.7794987 Z M43.5825037,33.0685802 C43.5825037,32.8726668 43.6183243,32.6870675 43.6899666,32.5117766 C43.761609,32.3364857 43.861395,32.1843974 43.9893277,32.055507 C44.1172605,31.9266166 44.2682188,31.8260836 44.4422074,31.753905 C44.6161959,31.6817264 44.8004163,31.6456377 44.994874,31.6456377 C45.1893318,31.6456377 45.3735521,31.6817264 45.5475407,31.753905 C45.7215292,31.8260836 45.8724875,31.9266166 46.0004203,32.055507 C46.128353,32.1843974 46.228139,32.3364857 46.2997814,32.5117766 C46.3714237,32.6870675 46.4072443,32.8726668 46.4072443,33.0685802 C46.4072443,33.2644936 46.3714237,33.4500929 46.2997814,33.6253838 C46.228139,33.8006747 46.128353,33.9527631 46.0004203,34.0816534 C45.8724875,34.2105438 45.7215292,34.3110768 45.5475407,34.3832554 C45.3735521,34.455434 45.1893318,34.4915227 44.994874,34.4915227 C44.8004163,34.4915227 44.6161959,34.455434 44.4422074,34.3832554 C44.2682188,34.3110768 44.1172605,34.2105438 43.9893277,34.0816534 C43.861395,33.9527631 43.761609,33.8006747 43.6899666,33.6253838 C43.6183243,33.4500929 43.5825037,33.2644936 43.5825037,33.0685802 L43.5825037,33.0685802 Z" id="It’s" fill="#475366"></path>
                </g>
            </g>
        </g>
    </g>
</svg>